
<svg version="1.0" xmlns="http://www.w3.org/2000/svg"
 width="600.000000pt" height="600.000000pt" viewBox="0 0 600.000000 600.000000"
 preserveAspectRatio="xMidYMid meet">

<g transform="translate(0.000000,600.000000) scale(0.100000,-0.100000)"
fill="#000000" stroke="none">
<path d="M0 3000 l0 -3000 3000 0 3000 0 0 3000 0 3000 -3000 0 -3000 0 0
-3000z m2139 1225 c198 -52 260 -292 133 -520 -26 -46 -30 -50 -61 -47 -46 3
-94 28 -131 65 -37 38 -37 48 -1 100 42 62 61 113 61 169 0 246 -285 180 -475
-112 -104 -159 -203 -409 -240 -605 -51 -265 3 -661 119 -879 63 -119 188
-228 271 -236 71 -8 86 -1 154 68 36 37 81 93 100 125 45 76 95 212 115 309
18 87 21 218 6 218 -6 0 -45 -18 -88 -39 -131 -66 -207 -82 -285 -60 -36 10
-107 62 -107 80 0 14 123 97 251 169 216 122 377 183 443 166 41 -10 84 -63
102 -124 19 -66 16 -86 -16 -90 -14 -1 -38 -5 -55 -7 l-30 -5 -1 -82 c-2 -138
-41 -284 -120 -441 -85 -169 -211 -325 -310 -383 -96 -57 -344 -70 -468 -26
-183 66 -314 249 -390 544 -103 398 -17 875 219 1213 121 174 251 291 407 365
154 73 286 95 397 65z m2661 -78 c35 -12 35 -13 33 -67 -1 -30 -20 -145 -42
-255 -87 -428 -79 -602 35 -762 19 -27 34 -54 34 -60 0 -22 -103 -20 -205 4
-60 13 -76 22 -115 62 -45 46 -72 102 -85 174 -11 68 -20 55 -121 -191 -64
-157 -102 -225 -137 -244 -35 -18 -119 -17 -186 4 -143 44 -181 130 -180 403
1 288 63 588 158 772 55 106 58 108 153 108 82 0 148 -17 148 -38 0 -6 -20
-71 -44 -146 -81 -248 -131 -565 -124 -792 3 -115 5 -131 24 -150 l21 -21 22
31 c32 45 83 158 161 360 89 228 117 327 130 455 11 112 26 178 60 270 34 89
45 96 143 95 45 0 98 -6 117 -12z m-1194 -313 c56 -10 63 -28 48 -114 -39
-215 -65 -429 -79 -640 -36 -557 -83 -779 -224 -1075 -113 -234 -258 -387
-423 -445 -77 -27 -231 -37 -309 -21 -83 18 -159 58 -159 84 0 47 14 52 68 29
62 -27 103 -28 174 -3 79 27 109 44 178 102 185 153 326 473 379 854 21 153
37 415 24 415 -5 0 -19 -33 -33 -72 -59 -179 -151 -360 -217 -427 -41 -41 -81
-51 -163 -39 -77 10 -144 42 -180 86 -45 54 -64 182 -57 367 13 294 72 562
163 736 53 100 68 110 165 104 72 -4 139 -25 139 -43 0 -4 -14 -43 -30 -87
-74 -197 -126 -449 -142 -690 -12 -187 -6 -273 22 -307 l19 -23 46 50 c52 55
114 177 164 318 17 49 72 253 122 455 50 202 95 372 101 379 5 6 19 14 31 16
25 5 126 0 173 -9z"/>
</g>
</svg>
